<svg xmlns="http://www.w3.org/2000/svg" enable-background="new 0 0 32 32" viewBox="0 0 32 32" id="loading">
<path d="M17.9375 2.4375C17.9375 1.36938 17.06854.5 16 .5s-1.9375.86938-1.9375 1.9375v3.875C14.0625 7.38055 14.93146 8.25 16 8.25s1.9375-.86945 1.9375-1.9375V2.4375zM.5 16c0 1.06805.86896 1.9375 1.9375 1.9375h3.875C7.38104 17.9375 8.25 17.06805 8.25 16c0-1.06812-.86896-1.9375-1.9375-1.9375h-3.875C1.36896 14.0625.5 14.93188.5 16zM7.77985 21.48041L5.0401 24.22015c-.75543.75494-.75543 1.9848 0 2.73975.36609.36615.85236.56763 1.36987.56763.51746 0 1.00372-.20148 1.36987-.56763l2.73975-2.73975c.75537-.75494.75537-1.9848 0-2.73975C9.76465 20.72546 8.53479 20.72546 7.77985 21.48041zM16 23.75c-1.06854 0-1.9375.86938-1.9375 1.9375v3.875c0 1.06805.86896 1.9375 1.9375 1.9375s1.9375-.86945 1.9375-1.9375v-3.875C17.9375 24.61938 17.06854 23.75 16 23.75zM21.48047 24.22015l2.73975 2.73975c.36609.36615.85236.56763 1.36987.56763.51746 0 1.00372-.20148 1.36987-.56763.75537-.75494.75537-1.9848 0-2.73975l-2.73975-2.73975c-.75494-.75494-1.9848-.75494-2.73975 0C20.72504 22.23535 20.72504 23.46521 21.48047 24.22015zM29.5625 14.0625h-3.875c-1.06854 0-1.9375.86938-1.9375 1.9375 0 1.06805.86896 1.9375 1.9375 1.9375h3.875c1.06854 0 1.9375-.86945 1.9375-1.9375C31.5 14.93188 30.63104 14.0625 29.5625 14.0625zM26.95996 7.77979c.75537-.75494.75537-1.9848 0-2.73975-.75494-.75494-1.9848-.75494-2.73975 0l-2.73975 2.73975c-.75543.75494-.75543 1.9848 0 2.73975.36609.36615.85236.56763 1.36987.56763.51746 0 1.00372-.20148 1.36987-.56763L26.95996 7.77979z"></path>
</svg>